<svg width="48" height="49" viewBox="0 0 48 49" fill="none" xmlns="http://www.w3.org/2000/svg">
<g clip-path="url(#clip0_2_16)">
<path d="M47.4 19.7L42 23.75V35C41.9951 36.5898 41.3613 38.113 40.2372 39.2372C39.113 40.3613 37.5898 40.9951 36 41H12C10.4102 40.9951 8.88698 40.3613 7.76283 39.2372C6.63868 38.113 6.00495 36.5898 6.00001 35V23.75L0.600006 19.7C0.281746 19.4613 0.0713428 19.106 0.0150819 18.7121C-0.041179 18.3183 0.0613113 17.9183 0.300006 17.6C0.538701 17.2817 0.894048 17.0713 1.28787 17.0151C1.6817 16.9588 2.08175 17.0613 2.40001 17.3L6.00001 20V17C6.00001 16.2044 6.31608 15.4413 6.87869 14.8787C7.4413 14.3161 8.20436 14 9.00001 14H39C39.7957 14 40.5587 14.3161 41.1213 14.8787C41.6839 15.4413 42 16.2044 42 17V20L45.6 17.3C45.9183 17.0613 46.3183 16.9588 46.7121 17.0151C47.106 17.0713 47.4613 17.2817 47.7 17.6C47.9387 17.9183 48.0412 18.3183 47.9849 18.7121C47.9287 19.106 47.7183 19.4613 47.4 19.7ZM30 11C30.3978 11 30.7794 10.842 31.0607 10.5607C31.342 10.2794 31.5 9.89782 31.5 9.5V3.5C31.5 3.10218 31.342 2.72064 31.0607 2.43934C30.7794 2.15804 30.3978 2 30 2C29.6022 2 29.2207 2.15804 28.9393 2.43934C28.658 2.72064 28.5 3.10218 28.5 3.5V9.5C28.5 9.89782 28.658 10.2794 28.9393 10.5607C29.2207 10.842 29.6022 11 30 11ZM24 11C24.3978 11 24.7794 10.842 25.0607 10.5607C25.342 10.2794 25.5 9.89782 25.5 9.5V3.5C25.5 3.10218 25.342 2.72064 25.0607 2.43934C24.7794 2.15804 24.3978 2 24 2C23.6022 2 23.2207 2.15804 22.9393 2.43934C22.658 2.72064 22.5 3.10218 22.5 3.5V9.5C22.5 9.89782 22.658 10.2794 22.9393 10.5607C23.2207 10.842 23.6022 11 24 11ZM18 11C18.3978 11 18.7794 10.842 19.0607 10.5607C19.342 10.2794 19.5 9.89782 19.5 9.5V3.5C19.5 3.10218 19.342 2.72064 19.0607 2.43934C18.7794 2.15804 18.3978 2 18 2C17.6022 2 17.2207 2.15804 16.9393 2.43934C16.658 2.72064 16.5 3.10218 16.5 3.5V9.5C16.5 9.89782 16.658 10.2794 16.9393 10.5607C17.2207 10.842 17.6022 11 18 11Z" fill="white"/>
</g>
<defs>
<clipPath id="clip0_2_16">
<rect width="48" height="48" fill="white" transform="translate(0 0.5)"/>
</clipPath>
</defs>
</svg>
